<mxfile host="65bd71144e">
    <diagram name="Page-1" id="-lAuZmAd1o8UN6eB92rN">
        <mxGraphModel dx="832" dy="568" grid="1" gridSize="10" guides="1" tooltips="1" connect="1" arrows="1" fold="1" page="1" pageScale="1" pageWidth="850" pageHeight="1100" math="0" shadow="0">
            <root>
                <mxCell id="0"/>
                <mxCell id="1" parent="0"/>
                <mxCell id="1NCSKN_BuQClj-ASm_zZ-1" value="Click the &lt;br&gt;&quot;Confirm Order&quot; button" style="html=1;verticalAlign=bottom;endArrow=block;edgeStyle=elbowEdgeStyle;elbow=vertical;curved=0;rounded=0;" parent="1" target="1NCSKN_BuQClj-ASm_zZ-3" edge="1">
                    <mxGeometry x="0.15" relative="1" as="geometry">
                        <mxPoint x="95" y="180" as="sourcePoint"/>
                        <Array as="points">
                            <mxPoint x="190" y="190"/>
                        </Array>
                        <mxPoint x="265" y="180" as="targetPoint"/>
                        <mxPoint as="offset"/>
                    </mxGeometry>
                </mxCell>
                <mxCell id="1NCSKN_BuQClj-ASm_zZ-4" value="User" style="shape=umlActor;verticalLabelPosition=bottom;verticalAlign=top;html=1;outlineConnect=0;" parent="1" vertex="1">
                    <mxGeometry x="80" y="80" width="30" height="60" as="geometry"/>
                </mxCell>
                <mxCell id="1NCSKN_BuQClj-ASm_zZ-5" value="" style="endArrow=none;dashed=1;html=1;rounded=0;" parent="1" source="1NCSKN_BuQClj-ASm_zZ-9" target="1NCSKN_BuQClj-ASm_zZ-4" edge="1">
                    <mxGeometry width="50" height="50" relative="1" as="geometry">
                        <mxPoint x="95" y="410" as="sourcePoint"/>
                        <mxPoint x="450" y="330" as="targetPoint"/>
                    </mxGeometry>
                </mxCell>
                <mxCell id="1NCSKN_BuQClj-ASm_zZ-8" value="" style="endArrow=none;dashed=1;html=1;rounded=0;" parent="1" source="1NCSKN_BuQClj-ASm_zZ-37" target="1NCSKN_BuQClj-ASm_zZ-9" edge="1">
                    <mxGeometry width="50" height="50" relative="1" as="geometry">
                        <mxPoint x="95" y="580" as="sourcePoint"/>
                        <mxPoint x="95" y="140" as="targetPoint"/>
                        <Array as="points"/>
                    </mxGeometry>
                </mxCell>
                <mxCell id="1NCSKN_BuQClj-ASm_zZ-9" value="" style="html=1;points=[];perimeter=orthogonalPerimeter;outlineConnect=0;targetShapes=umlLifeline;portConstraint=eastwest;newEdgeStyle={&quot;edgeStyle&quot;:&quot;elbowEdgeStyle&quot;,&quot;elbow&quot;:&quot;vertical&quot;,&quot;curved&quot;:0,&quot;rounded&quot;:0};" parent="1" vertex="1">
                    <mxGeometry x="90" y="170" width="10" height="220" as="geometry"/>
                </mxCell>
                <mxCell id="1NCSKN_BuQClj-ASm_zZ-15" value="Display the details of the &lt;br&gt;ongoing delivery product&lt;span id=&quot;docs-internal-guid-6458af00-7fff-c97e-c29c-b792e0b922f8&quot;&gt;&lt;/span&gt;" style="html=1;verticalAlign=bottom;endArrow=open;dashed=1;endSize=8;edgeStyle=elbowEdgeStyle;elbow=vertical;curved=0;rounded=0;" parent="1" source="1NCSKN_BuQClj-ASm_zZ-2" edge="1">
                    <mxGeometry x="-0.0554" relative="1" as="geometry">
                        <mxPoint x="440" y="260" as="sourcePoint"/>
                        <mxPoint x="100" y="260" as="targetPoint"/>
                        <mxPoint x="1" as="offset"/>
                        <Array as="points">
                            <mxPoint x="220" y="260"/>
                        </Array>
                    </mxGeometry>
                </mxCell>
                <mxCell id="1NCSKN_BuQClj-ASm_zZ-19" value="" style="html=1;points=[];perimeter=orthogonalPerimeter;outlineConnect=0;targetShapes=umlLifeline;portConstraint=eastwest;newEdgeStyle={&quot;edgeStyle&quot;:&quot;elbowEdgeStyle&quot;,&quot;elbow&quot;:&quot;vertical&quot;,&quot;curved&quot;:0,&quot;rounded&quot;:0};" parent="1" vertex="1">
                    <mxGeometry x="90" y="800" width="10" as="geometry"/>
                </mxCell>
                <mxCell id="1NCSKN_BuQClj-ASm_zZ-20" value="UC013_SequenceDiagram" style="shape=umlFrame;whiteSpace=wrap;html=1;pointerEvents=0;width=170;height=30;" parent="1" vertex="1">
                    <mxGeometry x="40" y="40" width="760" height="800" as="geometry"/>
                </mxCell>
                <mxCell id="1NCSKN_BuQClj-ASm_zZ-2" value="Check-Out Product" style="shape=umlLifeline;perimeter=lifelinePerimeter;whiteSpace=wrap;html=1;container=0;dropTarget=0;collapsible=0;recursiveResize=0;outlineConnect=0;portConstraint=eastwest;newEdgeStyle={&quot;edgeStyle&quot;:&quot;elbowEdgeStyle&quot;,&quot;elbow&quot;:&quot;vertical&quot;,&quot;curved&quot;:0,&quot;rounded&quot;:0};" parent="1" vertex="1">
                    <mxGeometry x="240" y="100" width="100" height="700" as="geometry"/>
                </mxCell>
                <mxCell id="1NCSKN_BuQClj-ASm_zZ-3" value="" style="html=1;points=[];perimeter=orthogonalPerimeter;outlineConnect=0;targetShapes=umlLifeline;portConstraint=eastwest;newEdgeStyle={&quot;edgeStyle&quot;:&quot;elbowEdgeStyle&quot;,&quot;elbow&quot;:&quot;vertical&quot;,&quot;curved&quot;:0,&quot;rounded&quot;:0};" parent="1NCSKN_BuQClj-ASm_zZ-2" vertex="1">
                    <mxGeometry x="45" y="70" width="10" height="120" as="geometry"/>
                </mxCell>
                <mxCell id="1NCSKN_BuQClj-ASm_zZ-31" value="" style="html=1;points=[];perimeter=orthogonalPerimeter;outlineConnect=0;targetShapes=umlLifeline;portConstraint=eastwest;newEdgeStyle={&quot;edgeStyle&quot;:&quot;elbowEdgeStyle&quot;,&quot;elbow&quot;:&quot;vertical&quot;,&quot;curved&quot;:0,&quot;rounded&quot;:0};" parent="1NCSKN_BuQClj-ASm_zZ-2" vertex="1">
                    <mxGeometry x="45" y="320" width="10" height="90" as="geometry"/>
                </mxCell>
                <mxCell id="1NCSKN_BuQClj-ASm_zZ-22" value="Bank" style="shape=umlLifeline;perimeter=lifelinePerimeter;whiteSpace=wrap;html=1;container=0;dropTarget=0;collapsible=0;recursiveResize=0;outlineConnect=0;portConstraint=eastwest;newEdgeStyle={&quot;edgeStyle&quot;:&quot;elbowEdgeStyle&quot;,&quot;elbow&quot;:&quot;vertical&quot;,&quot;curved&quot;:0,&quot;rounded&quot;:0};" parent="1" vertex="1">
                    <mxGeometry x="450" y="100" width="100" height="700" as="geometry"/>
                </mxCell>
                <mxCell id="1NCSKN_BuQClj-ASm_zZ-23" value="" style="html=1;points=[];perimeter=orthogonalPerimeter;outlineConnect=0;targetShapes=umlLifeline;portConstraint=eastwest;newEdgeStyle={&quot;edgeStyle&quot;:&quot;elbowEdgeStyle&quot;,&quot;elbow&quot;:&quot;vertical&quot;,&quot;curved&quot;:0,&quot;rounded&quot;:0};" parent="1NCSKN_BuQClj-ASm_zZ-22" vertex="1">
                    <mxGeometry x="45" y="190" width="10" height="120" as="geometry"/>
                </mxCell>
                <mxCell id="1NCSKN_BuQClj-ASm_zZ-26" value="Paid for the product" style="html=1;verticalAlign=bottom;endArrow=block;edgeStyle=elbowEdgeStyle;elbow=vertical;curved=0;rounded=0;exitX=1;exitY=0.889;exitDx=0;exitDy=0;exitPerimeter=0;" parent="1" source="1NCSKN_BuQClj-ASm_zZ-9" target="1NCSKN_BuQClj-ASm_zZ-23" edge="1">
                    <mxGeometry x="-0.3391" width="80" relative="1" as="geometry">
                        <mxPoint x="250" y="300" as="sourcePoint"/>
                        <mxPoint x="330" y="300" as="targetPoint"/>
                        <Array as="points">
                            <mxPoint x="380" y="320"/>
                        </Array>
                        <mxPoint as="offset"/>
                    </mxGeometry>
                </mxCell>
                <mxCell id="1NCSKN_BuQClj-ASm_zZ-27" value="Recieve the transaction details" style="html=1;verticalAlign=bottom;endArrow=open;dashed=1;endSize=8;edgeStyle=elbowEdgeStyle;elbow=vertical;curved=0;rounded=0;" parent="1" target="1NCSKN_BuQClj-ASm_zZ-9" edge="1">
                    <mxGeometry x="-0.4872" relative="1" as="geometry">
                        <mxPoint x="490" y="360" as="sourcePoint"/>
                        <mxPoint x="250" y="300" as="targetPoint"/>
                        <Array as="points">
                            <mxPoint x="370" y="360"/>
                            <mxPoint x="380" y="350"/>
                        </Array>
                        <mxPoint as="offset"/>
                    </mxGeometry>
                </mxCell>
                <mxCell id="1NCSKN_BuQClj-ASm_zZ-28" value="Notifications" style="shape=umlLifeline;perimeter=lifelinePerimeter;whiteSpace=wrap;html=1;container=0;dropTarget=0;collapsible=0;recursiveResize=0;outlineConnect=0;portConstraint=eastwest;newEdgeStyle={&quot;edgeStyle&quot;:&quot;elbowEdgeStyle&quot;,&quot;elbow&quot;:&quot;vertical&quot;,&quot;curved&quot;:0,&quot;rounded&quot;:0};" parent="1" vertex="1">
                    <mxGeometry x="670" y="100" width="100" height="700" as="geometry"/>
                </mxCell>
                <mxCell id="1NCSKN_BuQClj-ASm_zZ-29" value="" style="html=1;points=[];perimeter=orthogonalPerimeter;outlineConnect=0;targetShapes=umlLifeline;portConstraint=eastwest;newEdgeStyle={&quot;edgeStyle&quot;:&quot;elbowEdgeStyle&quot;,&quot;elbow&quot;:&quot;vertical&quot;,&quot;curved&quot;:0,&quot;rounded&quot;:0};" parent="1NCSKN_BuQClj-ASm_zZ-28" vertex="1">
                    <mxGeometry x="45" y="430" width="10" height="260" as="geometry"/>
                </mxCell>
                <mxCell id="1NCSKN_BuQClj-ASm_zZ-30" value="Click the&lt;br&gt;&quot;Track My Product&quot; button" style="html=1;verticalAlign=bottom;endArrow=block;edgeStyle=elbowEdgeStyle;elbow=vertical;curved=0;rounded=0;exitX=1;exitY=0.889;exitDx=0;exitDy=0;exitPerimeter=0;" parent="1" target="1NCSKN_BuQClj-ASm_zZ-31" edge="1">
                    <mxGeometry x="0.115" width="80" relative="1" as="geometry">
                        <mxPoint x="100" y="486" as="sourcePoint"/>
                        <mxPoint x="280" y="440" as="targetPoint"/>
                        <Array as="points">
                            <mxPoint x="380" y="440"/>
                        </Array>
                        <mxPoint as="offset"/>
                    </mxGeometry>
                </mxCell>
                <mxCell id="1NCSKN_BuQClj-ASm_zZ-32" value="Display the whereabouts&lt;br&gt;&amp;nbsp;of the product" style="html=1;verticalAlign=bottom;endArrow=open;dashed=1;endSize=8;edgeStyle=elbowEdgeStyle;elbow=vertical;curved=0;rounded=0;" parent="1" source="1NCSKN_BuQClj-ASm_zZ-31" edge="1">
                    <mxGeometry x="0.027" relative="1" as="geometry">
                        <mxPoint x="490" y="480" as="sourcePoint"/>
                        <mxPoint x="100" y="490" as="targetPoint"/>
                        <Array as="points">
                            <mxPoint x="250" y="490"/>
                            <mxPoint x="200" y="480"/>
                            <mxPoint x="380" y="470"/>
                        </Array>
                        <mxPoint as="offset"/>
                    </mxGeometry>
                </mxCell>
                <mxCell id="1NCSKN_BuQClj-ASm_zZ-38" value="" style="endArrow=none;dashed=1;html=1;rounded=0;" parent="1" source="1NCSKN_BuQClj-ASm_zZ-41" target="1NCSKN_BuQClj-ASm_zZ-37" edge="1">
                    <mxGeometry width="50" height="50" relative="1" as="geometry">
                        <mxPoint x="95" y="700" as="sourcePoint"/>
                        <mxPoint x="95" y="390" as="targetPoint"/>
                        <Array as="points">
                            <mxPoint x="95" y="410"/>
                        </Array>
                    </mxGeometry>
                </mxCell>
                <mxCell id="1NCSKN_BuQClj-ASm_zZ-37" value="" style="html=1;points=[];perimeter=orthogonalPerimeter;outlineConnect=0;targetShapes=umlLifeline;portConstraint=eastwest;newEdgeStyle={&quot;edgeStyle&quot;:&quot;elbowEdgeStyle&quot;,&quot;elbow&quot;:&quot;vertical&quot;,&quot;curved&quot;:0,&quot;rounded&quot;:0};" parent="1" vertex="1">
                    <mxGeometry x="90" y="420" width="10" height="90" as="geometry"/>
                </mxCell>
                <mxCell id="1NCSKN_BuQClj-ASm_zZ-39" value="Display enable or disable&lt;br&gt;&amp;nbsp;notifications" style="html=1;verticalAlign=bottom;endArrow=open;dashed=1;endSize=8;edgeStyle=elbowEdgeStyle;elbow=vertical;curved=0;rounded=0;" parent="1" source="1NCSKN_BuQClj-ASm_zZ-29" target="1NCSKN_BuQClj-ASm_zZ-41" edge="1">
                    <mxGeometry x="-0.626" relative="1" as="geometry">
                        <mxPoint x="330" y="390" as="sourcePoint"/>
                        <mxPoint x="300" y="520" as="targetPoint"/>
                        <Array as="points">
                            <mxPoint x="410" y="600"/>
                            <mxPoint x="140" y="560"/>
                            <mxPoint x="410" y="540"/>
                            <mxPoint x="550" y="520"/>
                            <mxPoint x="520" y="520"/>
                            <mxPoint x="400" y="510"/>
                            <mxPoint x="560" y="440"/>
                            <mxPoint x="580" y="440"/>
                        </Array>
                        <mxPoint as="offset"/>
                    </mxGeometry>
                </mxCell>
                <mxCell id="1NCSKN_BuQClj-ASm_zZ-42" value="" style="endArrow=none;dashed=1;html=1;rounded=0;" parent="1" source="1NCSKN_BuQClj-ASm_zZ-19" target="1NCSKN_BuQClj-ASm_zZ-41" edge="1">
                    <mxGeometry width="50" height="50" relative="1" as="geometry">
                        <mxPoint x="95" y="800" as="sourcePoint"/>
                        <mxPoint x="95" y="420" as="targetPoint"/>
                        <Array as="points"/>
                    </mxGeometry>
                </mxCell>
                <mxCell id="1NCSKN_BuQClj-ASm_zZ-41" value="" style="html=1;points=[];perimeter=orthogonalPerimeter;outlineConnect=0;targetShapes=umlLifeline;portConstraint=eastwest;newEdgeStyle={&quot;edgeStyle&quot;:&quot;elbowEdgeStyle&quot;,&quot;elbow&quot;:&quot;vertical&quot;,&quot;curved&quot;:0,&quot;rounded&quot;:0};" parent="1" vertex="1">
                    <mxGeometry x="90" y="540" width="10" height="250" as="geometry"/>
                </mxCell>
                <mxCell id="1NCSKN_BuQClj-ASm_zZ-43" value="Click the&lt;br&gt;&quot;Enable Notifications&quot; button" style="html=1;verticalAlign=bottom;endArrow=block;edgeStyle=elbowEdgeStyle;elbow=vertical;curved=0;rounded=0;exitX=1;exitY=0.889;exitDx=0;exitDy=0;exitPerimeter=0;" parent="1" target="1NCSKN_BuQClj-ASm_zZ-29" edge="1">
                    <mxGeometry x="-0.5582" width="80" relative="1" as="geometry">
                        <mxPoint x="100" y="686" as="sourcePoint"/>
                        <mxPoint x="285" y="640" as="targetPoint"/>
                        <Array as="points">
                            <mxPoint x="380" y="640"/>
                        </Array>
                        <mxPoint as="offset"/>
                    </mxGeometry>
                </mxCell>
                <mxCell id="1NCSKN_BuQClj-ASm_zZ-44" value="Click the&lt;br&gt;&quot;Disable Notifications&quot; button" style="html=1;verticalAlign=bottom;endArrow=block;edgeStyle=elbowEdgeStyle;elbow=vertical;curved=0;rounded=0;" parent="1" edge="1">
                    <mxGeometry x="-0.6748" width="80" relative="1" as="geometry">
                        <mxPoint x="100" y="720" as="sourcePoint"/>
                        <mxPoint x="715" y="720" as="targetPoint"/>
                        <Array as="points">
                            <mxPoint x="380" y="720"/>
                        </Array>
                        <mxPoint as="offset"/>
                    </mxGeometry>
                </mxCell>
                <mxCell id="1NCSKN_BuQClj-ASm_zZ-45" value="Notifications will be sent &lt;br&gt;by ring or vibrate" style="html=1;verticalAlign=bottom;endArrow=open;dashed=1;endSize=8;edgeStyle=elbowEdgeStyle;elbow=vertical;curved=0;rounded=0;" parent="1" edge="1">
                    <mxGeometry x="-0.6393" relative="1" as="geometry">
                        <mxPoint x="710" y="680" as="sourcePoint"/>
                        <mxPoint x="100" y="680" as="targetPoint"/>
                        <mxPoint as="offset"/>
                    </mxGeometry>
                </mxCell>
                <mxCell id="1NCSKN_BuQClj-ASm_zZ-46" value="Notifications will not be&lt;br&gt;&amp;nbsp;sent and muted" style="html=1;verticalAlign=bottom;endArrow=open;dashed=1;endSize=8;edgeStyle=elbowEdgeStyle;elbow=vertical;curved=0;rounded=0;" parent="1" edge="1">
                    <mxGeometry x="-0.6393" relative="1" as="geometry">
                        <mxPoint x="710" y="770" as="sourcePoint"/>
                        <mxPoint x="100" y="770" as="targetPoint"/>
                        <mxPoint as="offset"/>
                    </mxGeometry>
                </mxCell>
                <mxCell id="2" value="Click the&lt;br&gt;&quot;Manage Notifications&quot; button" style="html=1;verticalAlign=bottom;endArrow=block;edgeStyle=elbowEdgeStyle;elbow=vertical;curved=0;rounded=0;exitX=1;exitY=0.889;exitDx=0;exitDy=0;exitPerimeter=0;" edge="1" parent="1" target="1NCSKN_BuQClj-ASm_zZ-29">
                    <mxGeometry x="-0.5885" width="80" relative="1" as="geometry">
                        <mxPoint x="100" y="596" as="sourcePoint"/>
                        <mxPoint x="285" y="550" as="targetPoint"/>
                        <Array as="points">
                            <mxPoint x="470" y="560"/>
                            <mxPoint x="380" y="550"/>
                        </Array>
                        <mxPoint as="offset"/>
                    </mxGeometry>
                </mxCell>
            </root>
        </mxGraphModel>
    </diagram>
</mxfile>